<svg width="249" height="38" viewBox="0 0 249 38" fill="none" xmlns="http://www.w3.org/2000/svg">
<path d="M5.39831 19.5164C5.39474 22.2194 5.92497 24.8964 6.9586 27.394C7.99223 29.8915 9.50888 32.1604 11.4215 34.0703L8.21432 37.2775C3.50617 32.5625 0.862734 26.1711 0.864992 19.5079C0.867249 12.8447 3.51501 6.455 8.22636 1.74316L11.4345 4.95135C9.51802 6.86139 7.99807 9.13152 6.96214 11.6312C5.92621 14.1308 5.39475 16.8106 5.39831 19.5164Z" fill="white"/>
<path d="M12.7329 19.5164C12.7307 21.2556 13.0729 22.9779 13.7397 24.5841C14.4066 26.1903 15.385 27.6485 16.6184 28.8746L13.4172 32.0758C11.7629 30.4277 10.4505 28.469 9.55539 26.3122C8.66027 24.1554 8.20006 21.8431 8.20117 19.5079C8.20229 17.1728 8.66472 14.8609 9.56191 12.7049C10.4591 10.549 11.7734 8.59159 13.4292 6.94507L16.6304 10.1463C15.3934 11.3728 14.412 12.8325 13.743 14.4409C13.074 16.0493 12.7307 17.7745 12.7329 19.5164Z" fill="white"/>
<path d="M29.918 27.2776V12.1204H36.1377C36.9684 12.1204 37.7096 12.2636 38.3613 12.55C39.0202 12.8293 39.5465 13.2089 39.9404 13.6887C40.3343 14.1614 40.6315 14.6877 40.832 15.2678C41.0326 15.8479 41.1328 16.4566 41.1328 17.094C41.1328 17.7385 41.0326 18.3508 40.832 18.9309C40.6315 19.511 40.3343 20.0374 39.9404 20.51C39.5465 20.9755 39.0202 21.3479 38.3613 21.6272C37.7096 21.9065 36.9684 22.0461 36.1377 22.0461H33.1514V27.2776H29.918ZM33.1514 19.2209H35.9873C36.5745 19.2209 37.04 19.0025 37.3838 18.5657C37.7275 18.1288 37.8994 17.6383 37.8994 17.094C37.8994 16.564 37.7347 16.0771 37.4053 15.6331C37.083 15.1819 36.639 14.9563 36.0732 14.9563H33.1514V19.2209ZM42.0566 22.1321C42.0566 21.3372 42.2035 20.5995 42.4971 19.9192C42.7979 19.2317 43.1953 18.6659 43.6895 18.2219C44.1836 17.7708 44.7422 17.4198 45.3652 17.1692C45.9883 16.9114 46.6292 16.7825 47.2881 16.7825C47.5674 16.7825 47.8646 16.8147 48.1797 16.8792C48.502 16.9364 48.8708 17.0761 49.2861 17.2981C49.7087 17.5129 50.0417 17.7958 50.2852 18.1467V17.0081H53.3145V27.2776H50.2852V26.1067C49.9915 26.5507 49.5404 26.8909 48.9316 27.1272C48.3301 27.3564 47.7822 27.4709 47.2881 27.4709C46.4001 27.4709 45.5622 27.2597 44.7744 26.8372C43.9867 26.4146 43.335 25.7916 42.8193 24.968C42.3109 24.1373 42.0566 23.192 42.0566 22.1321ZM45.999 20.3811C45.4834 20.8394 45.2256 21.4231 45.2256 22.1321C45.2256 22.8411 45.4834 23.4247 45.999 23.8831C46.5218 24.3414 47.1198 24.5706 47.793 24.5706C48.459 24.5706 49.0391 24.3486 49.5332 23.9045C50.0345 23.4534 50.2852 22.8625 50.2852 22.1321C50.2852 21.3944 50.0345 20.8036 49.5332 20.3596C49.0391 19.9084 48.459 19.6829 47.793 19.6829C47.1198 19.6829 46.5218 19.9156 45.999 20.3811ZM55.5273 23.9583H58.3848C58.3991 24.2662 58.5531 24.5419 58.8467 24.7854C59.1403 25.0217 59.4912 25.1399 59.8994 25.1399C60.2503 25.1256 60.5475 25.0432 60.791 24.8928C61.0345 24.7353 61.1562 24.5312 61.1562 24.2805C61.1562 24.0585 61.0811 23.8831 60.9307 23.7542C60.7803 23.6181 60.5189 23.5035 60.1465 23.4104L58.8037 23.0559C58.2165 22.8984 57.7152 22.7014 57.2998 22.4651C56.8844 22.2288 56.5765 22.0068 56.376 21.7991C56.1755 21.5842 56.0215 21.3336 55.9141 21.0471C55.8066 20.7535 55.7458 20.5208 55.7314 20.3489C55.7171 20.177 55.7135 19.9622 55.7207 19.7043C55.735 18.9381 56.1396 18.2613 56.9346 17.6741C57.7295 17.0797 58.6605 16.7825 59.7275 16.7825C60.1501 16.7825 60.5547 16.8219 60.9414 16.9006C61.3353 16.9722 61.7148 17.094 62.0801 17.2659C62.4525 17.4377 62.7712 17.6526 63.0361 17.9104C63.3083 18.1682 63.5267 18.4941 63.6914 18.8879C63.8561 19.2747 63.9421 19.7115 63.9492 20.1985H61.0703C61.056 19.5969 60.6657 19.2961 59.8994 19.2961C59.57 19.2961 59.305 19.3678 59.1045 19.511C58.9111 19.6471 58.818 19.8297 58.8252 20.0588C58.8538 20.4312 59.1546 20.689 59.7275 20.8323L61.4678 21.2942C61.9404 21.4231 62.3522 21.595 62.7031 21.8098C63.0612 22.0175 63.3333 22.2288 63.5195 22.4436C63.7129 22.6584 63.8669 22.8912 63.9814 23.1418C64.1032 23.3925 64.1784 23.6073 64.207 23.7864C64.2428 23.9583 64.2607 24.123 64.2607 24.2805C64.2607 24.8033 64.1318 25.276 63.874 25.6985C63.6162 26.121 63.2725 26.4612 62.8428 26.719C62.4131 26.9696 61.9368 27.1594 61.4141 27.2883C60.8984 27.4244 60.3649 27.4924 59.8135 27.4924C59.391 27.4924 58.9756 27.4423 58.5674 27.342C58.1592 27.2489 57.7725 27.1057 57.4072 26.9124C57.042 26.7118 56.7197 26.4755 56.4404 26.2034C56.1611 25.9241 55.9391 25.5911 55.7744 25.2043C55.6169 24.8176 55.5345 24.4023 55.5273 23.9583ZM65.7969 23.9583H68.6543C68.6686 24.2662 68.8226 24.5419 69.1162 24.7854C69.4098 25.0217 69.7607 25.1399 70.1689 25.1399C70.5199 25.1256 70.8171 25.0432 71.0605 24.8928C71.304 24.7353 71.4258 24.5312 71.4258 24.2805C71.4258 24.0585 71.3506 23.8831 71.2002 23.7542C71.0498 23.6181 70.7884 23.5035 70.416 23.4104L69.0732 23.0559C68.486 22.8984 67.9847 22.7014 67.5693 22.4651C67.154 22.2288 66.846 22.0068 66.6455 21.7991C66.445 21.5842 66.291 21.3336 66.1836 21.0471C66.0762 20.7535 66.0153 20.5208 66.001 20.3489C65.9867 20.177 65.9831 19.9622 65.9902 19.7043C66.0046 18.9381 66.4092 18.2613 67.2041 17.6741C67.999 17.0797 68.93 16.7825 69.9971 16.7825C70.4196 16.7825 70.8242 16.8219 71.2109 16.9006C71.6048 16.9722 71.9844 17.094 72.3496 17.2659C72.722 17.4377 73.0407 17.6526 73.3057 17.9104C73.5778 18.1682 73.7962 18.4941 73.9609 18.8879C74.1257 19.2747 74.2116 19.7115 74.2188 20.1985H71.3398C71.3255 19.5969 70.9352 19.2961 70.1689 19.2961C69.8395 19.2961 69.5745 19.3678 69.374 19.511C69.1807 19.6471 69.0876 19.8297 69.0947 20.0588C69.1234 20.4312 69.4242 20.689 69.9971 20.8323L71.7373 21.2942C72.21 21.4231 72.6217 21.595 72.9727 21.8098C73.3307 22.0175 73.6029 22.2288 73.7891 22.4436C73.9824 22.6584 74.1364 22.8912 74.251 23.1418C74.3727 23.3925 74.4479 23.6073 74.4766 23.7864C74.5124 23.9583 74.5303 24.123 74.5303 24.2805C74.5303 24.8033 74.4014 25.276 74.1436 25.6985C73.8857 26.121 73.542 26.4612 73.1123 26.719C72.6826 26.9696 72.2064 27.1594 71.6836 27.2883C71.168 27.4244 70.6344 27.4924 70.083 27.4924C69.6605 27.4924 69.2451 27.4423 68.8369 27.342C68.4287 27.2489 68.042 27.1057 67.6768 26.9124C67.3115 26.7118 66.9893 26.4755 66.71 26.2034C66.4307 25.9241 66.2087 25.5911 66.0439 25.2043C65.8864 24.8176 65.804 24.4023 65.7969 23.9583ZM76.0664 22.1106C76.0664 21.3228 76.2168 20.5924 76.5176 19.9192C76.8255 19.246 77.2373 18.6838 77.7529 18.2327C78.2686 17.7743 78.863 17.4198 79.5361 17.1692C80.2093 16.9114 80.9147 16.7825 81.6523 16.7825C82.569 16.7825 83.4176 16.9758 84.1982 17.3625C84.986 17.7421 85.627 18.2756 86.1211 18.9631L83.6289 20.7463C83.4212 20.4241 83.1383 20.1698 82.7803 19.9836C82.4294 19.7974 82.0534 19.7043 81.6523 19.7043C80.972 19.7043 80.374 19.9299 79.8584 20.3811C79.3499 20.8251 79.0957 21.4016 79.0957 22.1106C79.0957 22.8196 79.3499 23.4068 79.8584 23.8723C80.374 24.3378 80.972 24.5706 81.6523 24.5706C82.0534 24.5706 82.4294 24.481 82.7803 24.302C83.1383 24.1158 83.4212 23.8616 83.6289 23.5393L86.1211 25.301C85.6413 25.9957 85.0075 26.5364 84.2197 26.9231C83.432 27.3027 82.5762 27.4924 81.6523 27.4924C80.6641 27.4924 79.7474 27.274 78.9023 26.8372C78.0573 26.3931 77.3734 25.7558 76.8506 24.925C76.3278 24.0943 76.0664 23.1562 76.0664 22.1106ZM87.4961 22.1106C87.4961 21.065 87.736 20.134 88.2158 19.3176C88.7028 18.4941 89.3473 17.8674 90.1494 17.4377C90.9587 17.0009 91.8467 16.7825 92.8135 16.7825C93.7803 16.7825 94.6683 17.0009 95.4775 17.4377C96.2868 17.8674 96.9349 18.4941 97.4219 19.3176C97.916 20.134 98.1631 21.065 98.1631 22.1106C98.1631 23.1562 97.916 24.0907 97.4219 24.9143C96.9349 25.7379 96.2868 26.3681 95.4775 26.8049C94.6683 27.2346 93.7803 27.4495 92.8135 27.4495C91.8467 27.4495 90.9587 27.2346 90.1494 26.8049C89.3473 26.3681 88.7028 25.7415 88.2158 24.925C87.736 24.1015 87.4961 23.1633 87.4961 22.1106ZM90.5039 22.1106C90.5039 22.8053 90.7259 23.371 91.1699 23.8079C91.6211 24.2447 92.1689 24.4631 92.8135 24.4631C93.4723 24.4631 94.0238 24.2483 94.4678 23.8186C94.9189 23.3818 95.1445 22.8124 95.1445 22.1106C95.1445 21.4303 94.9189 20.8717 94.4678 20.4348C94.0166 19.998 93.4652 19.7795 92.8135 19.7795C92.1689 19.7795 91.6211 19.998 91.1699 20.4348C90.7259 20.8717 90.5039 21.4303 90.5039 22.1106ZM99.7637 22.175C99.7637 21.373 99.8997 20.6318 100.172 19.9514C100.444 19.2639 100.806 18.6946 101.257 18.2434C101.715 17.7851 102.245 17.427 102.847 17.1692C103.448 16.9114 104.078 16.7825 104.737 16.7825C105.396 16.7825 106.001 16.915 106.553 17.1799C107.104 17.4377 107.502 17.7958 107.745 18.2542V11.4114H110.785V27.2776H107.745V25.9993C107.494 26.4648 107.093 26.83 106.542 27.095C105.991 27.3599 105.389 27.4924 104.737 27.4924C104.078 27.4924 103.448 27.3671 102.847 27.1165C102.245 26.8586 101.715 26.5042 101.257 26.053C100.806 25.6018 100.444 25.0396 100.172 24.3665C99.8997 23.6933 99.7637 22.9628 99.7637 22.175ZM102.933 22.1106C102.933 22.8482 103.162 23.4462 103.62 23.9045C104.078 24.3629 104.641 24.592 105.307 24.592C105.958 24.592 106.517 24.3593 106.982 23.8938C107.448 23.4283 107.681 22.8339 107.681 22.1106C107.681 21.373 107.448 20.7821 106.982 20.3381C106.524 19.887 105.965 19.6614 105.307 19.6614C104.641 19.6614 104.078 19.8905 103.62 20.3489C103.162 20.8 102.933 21.3873 102.933 22.1106ZM113.696 24.9358C113.216 24.1051 112.977 23.1633 112.977 22.1106C112.977 21.0579 113.216 20.1233 113.696 19.3069C114.183 18.4905 114.831 17.8674 115.641 17.4377C116.457 17.0009 117.356 16.7825 118.337 16.7825C119.06 16.7825 119.744 16.915 120.389 17.1799C121.033 17.4449 121.592 17.8101 122.064 18.2756C122.537 18.7411 122.91 19.314 123.182 19.9944C123.461 20.6676 123.601 21.4016 123.601 22.1965C123.601 22.4687 123.586 22.7838 123.558 23.1418H116.027C116.099 23.6933 116.385 24.1194 116.887 24.4202C117.395 24.7138 117.954 24.8606 118.562 24.8606C119.007 24.8606 119.429 24.7782 119.83 24.6135C120.238 24.4488 120.564 24.2089 120.808 23.8938L123.031 25.4084C122.551 26.1246 121.889 26.651 121.044 26.9875C120.199 27.3241 119.297 27.4924 118.337 27.4924C117.356 27.4924 116.457 27.274 115.641 26.8372C114.831 26.3931 114.183 25.7594 113.696 24.9358ZM116.07 21.2297H120.518C120.446 20.6497 120.192 20.2128 119.755 19.9192C119.325 19.6184 118.86 19.468 118.358 19.468C117.857 19.468 117.381 19.6148 116.93 19.9084C116.479 20.1949 116.192 20.6353 116.07 21.2297ZM130.003 12.1204H133.344L136.051 22.0676L138.736 12.1204H142.099L137.479 27.2776H134.622L130.003 12.1204ZM142.894 24.9358C142.414 24.1051 142.174 23.1633 142.174 22.1106C142.174 21.0579 142.414 20.1233 142.894 19.3069C143.381 18.4905 144.029 17.8674 144.838 17.4377C145.654 17.0009 146.553 16.7825 147.534 16.7825C148.257 16.7825 148.941 16.915 149.586 17.1799C150.23 17.4449 150.789 17.8101 151.262 18.2756C151.734 18.7411 152.107 19.314 152.379 19.9944C152.658 20.6676 152.798 21.4016 152.798 22.1965C152.798 22.4687 152.784 22.7838 152.755 23.1418H145.225C145.296 23.6933 145.583 24.1194 146.084 24.4202C146.592 24.7138 147.151 24.8606 147.76 24.8606C148.204 24.8606 148.626 24.7782 149.027 24.6135C149.436 24.4488 149.761 24.2089 150.005 23.8938L152.229 25.4084C151.749 26.1246 151.086 26.651 150.241 26.9875C149.396 27.3241 148.494 27.4924 147.534 27.4924C146.553 27.4924 145.654 27.274 144.838 26.8372C144.029 26.3931 143.381 25.7594 142.894 24.9358ZM145.268 21.2297H149.715C149.643 20.6497 149.389 20.2128 148.952 19.9192C148.522 19.6184 148.057 19.468 147.556 19.468C147.054 19.468 146.578 19.6148 146.127 19.9084C145.676 20.1949 145.389 20.6353 145.268 21.2297ZM154.882 27.2776V17.0081H157.943V19.4895C158.187 18.6015 158.584 17.9283 159.136 17.47C159.687 17.0116 160.257 16.7825 160.844 16.7825C161.531 16.7825 162.118 16.9078 162.605 17.1584L162.058 19.9084C161.635 19.7008 161.112 19.5969 160.489 19.5969C159.616 19.5969 158.971 19.9371 158.556 20.6174C158.147 21.2978 157.943 22.3219 157.943 23.6897V27.2776H154.882ZM164.346 14.4729C163.973 14.122 163.787 13.6959 163.787 13.1946C163.787 12.6933 163.973 12.2708 164.346 11.927C164.725 11.5833 165.176 11.4114 165.699 11.4114C166.215 11.4114 166.655 11.5833 167.021 11.927C167.386 12.2708 167.568 12.6933 167.568 13.1946C167.568 13.6959 167.386 14.122 167.021 14.4729C166.655 14.8238 166.215 14.9993 165.699 14.9993C165.176 14.9993 164.725 14.8238 164.346 14.4729ZM164.185 27.2776V17.0081H167.225V27.2776H164.185ZM169.126 19.425V17.0081H171.06V16.2991C171.06 14.7307 171.464 13.524 172.273 12.679C173.083 11.8339 174.225 11.4114 175.7 11.4114H176.828V14.344H175.7C175.185 14.344 174.794 14.5159 174.529 14.8596C174.271 15.1962 174.143 15.676 174.143 16.2991V17.0081H182.5V27.2776H179.471V19.425H174.143V27.2776H171.06V19.425H169.126ZM179.632 14.4729C179.259 14.122 179.073 13.6959 179.073 13.1946C179.073 12.6933 179.259 12.2708 179.632 11.927C180.011 11.5833 180.463 11.4114 180.985 11.4114C181.501 11.4114 181.941 11.5833 182.307 11.927C182.672 12.2708 182.854 12.6933 182.854 13.1946C182.854 13.6959 182.672 14.122 182.307 14.4729C181.941 14.8238 181.501 14.9993 180.985 14.9993C180.463 14.9993 180.011 14.8238 179.632 14.4729ZM184.713 22.1106C184.713 21.3228 184.863 20.5924 185.164 19.9192C185.472 19.246 185.884 18.6838 186.399 18.2327C186.915 17.7743 187.509 17.4198 188.183 17.1692C188.856 16.9114 189.561 16.7825 190.299 16.7825C191.215 16.7825 192.064 16.9758 192.845 17.3625C193.632 17.7421 194.273 18.2756 194.768 18.9631L192.275 20.7463C192.068 20.4241 191.785 20.1698 191.427 19.9836C191.076 19.7974 190.7 19.7043 190.299 19.7043C189.618 19.7043 189.021 19.9299 188.505 20.3811C187.996 20.8251 187.742 21.4016 187.742 22.1106C187.742 22.8196 187.996 23.4068 188.505 23.8723C189.021 24.3378 189.618 24.5706 190.299 24.5706C190.7 24.5706 191.076 24.481 191.427 24.302C191.785 24.1158 192.068 23.8616 192.275 23.5393L194.768 25.301C194.288 25.9957 193.654 26.5364 192.866 26.9231C192.078 27.3027 191.223 27.4924 190.299 27.4924C189.311 27.4924 188.394 27.274 187.549 26.8372C186.704 26.3931 186.02 25.7558 185.497 24.925C184.974 24.0943 184.713 23.1562 184.713 22.1106ZM196.143 22.1321C196.143 21.3372 196.289 20.5995 196.583 19.9192C196.884 19.2317 197.281 18.6659 197.775 18.2219C198.27 17.7708 198.828 17.4198 199.451 17.1692C200.074 16.9114 200.715 16.7825 201.374 16.7825C201.653 16.7825 201.951 16.8147 202.266 16.8792C202.588 16.9364 202.957 17.0761 203.372 17.2981C203.795 17.5129 204.128 17.7958 204.371 18.1467V17.0081H207.4V27.2776H204.371V26.1067C204.077 26.5507 203.626 26.8909 203.018 27.1272C202.416 27.3564 201.868 27.4709 201.374 27.4709C200.486 27.4709 199.648 27.2597 198.86 26.8372C198.073 26.4146 197.421 25.7916 196.905 24.968C196.397 24.1373 196.143 23.192 196.143 22.1321ZM200.085 20.3811C199.569 20.8394 199.312 21.4231 199.312 22.1321C199.312 22.8411 199.569 23.4247 200.085 23.8831C200.608 24.3414 201.206 24.5706 201.879 24.5706C202.545 24.5706 203.125 24.3486 203.619 23.9045C204.12 23.4534 204.371 22.8625 204.371 22.1321C204.371 21.3944 204.12 20.8036 203.619 20.3596C203.125 19.9084 202.545 19.6829 201.879 19.6829C201.206 19.6829 200.608 19.9156 200.085 20.3811ZM209.323 19.425V17.0081H211.192V13.0657H214.232V17.0081H216.392V19.425H214.232V27.2776H211.192V19.425H209.323ZM218.422 14.4729C218.049 14.122 217.863 13.6959 217.863 13.1946C217.863 12.6933 218.049 12.2708 218.422 11.927C218.801 11.5833 219.253 11.4114 219.775 11.4114C220.291 11.4114 220.731 11.5833 221.097 11.927C221.462 12.2708 221.645 12.6933 221.645 13.1946C221.645 13.6959 221.462 14.122 221.097 14.4729C220.731 14.8238 220.291 14.9993 219.775 14.9993C219.253 14.9993 218.801 14.8238 218.422 14.4729ZM218.261 27.2776V17.0081H221.301V27.2776H218.261ZM223.492 22.1106C223.492 21.065 223.732 20.134 224.212 19.3176C224.699 18.4941 225.343 17.8674 226.146 17.4377C226.955 17.0009 227.843 16.7825 228.81 16.7825C229.776 16.7825 230.664 17.0009 231.474 17.4377C232.283 17.8674 232.931 18.4941 233.418 19.3176C233.912 20.134 234.159 21.065 234.159 22.1106C234.159 23.1562 233.912 24.0907 233.418 24.9143C232.931 25.7379 232.283 26.3681 231.474 26.8049C230.664 27.2346 229.776 27.4495 228.81 27.4495C227.843 27.4495 226.955 27.2346 226.146 26.8049C225.343 26.3681 224.699 25.7415 224.212 24.925C223.732 24.1015 223.492 23.1633 223.492 22.1106ZM226.5 22.1106C226.5 22.8053 226.722 23.371 227.166 23.8079C227.617 24.2447 228.165 24.4631 228.81 24.4631C229.468 24.4631 230.02 24.2483 230.464 23.8186C230.915 23.3818 231.141 22.8124 231.141 22.1106C231.141 21.4303 230.915 20.8717 230.464 20.4348C230.013 19.998 229.461 19.7795 228.81 19.7795C228.165 19.7795 227.617 19.998 227.166 20.4348C226.722 20.8717 226.5 21.4303 226.5 22.1106ZM236.351 27.2776V17.0081H239.412V18.5012C239.684 17.9856 240.092 17.5702 240.637 17.2551C241.188 16.94 241.768 16.7825 242.377 16.7825C243.559 16.7825 244.479 17.1513 245.138 17.8889C245.804 18.6265 246.137 19.7115 246.137 21.1438V27.2776H243.086V21.7991C243.086 21.1402 242.921 20.6353 242.592 20.2844C242.27 19.9335 241.84 19.7581 241.303 19.7581C240.042 19.7581 239.412 20.4527 239.412 21.842V27.2776H236.351Z" fill="white"/>
</svg>
