<svg width="102" height="38" viewBox="0 0 102 38" fill="none" xmlns="http://www.w3.org/2000/svg">
<path d="M5.05896 19.5163C5.05538 22.2193 5.58562 24.8964 6.61925 27.3939C7.65287 29.8915 9.16953 32.1603 11.0822 34.0703L7.87496 37.2775C3.16681 32.5625 0.523379 26.171 0.525636 19.5078C0.527893 12.8446 3.17566 6.45494 7.887 1.7431L11.0952 4.95128C9.17866 6.86133 7.65871 9.13146 6.62278 11.6311C5.58685 14.1307 5.05539 16.8105 5.05896 19.5163Z" fill="white"/>
<path d="M12.3936 19.5164C12.3913 21.2555 12.7335 22.9779 13.4004 24.584C14.0673 26.1902 15.0456 27.6484 16.279 28.8745L13.0778 32.0757C11.4235 30.4276 10.1112 28.4689 9.21604 26.3122C8.32092 24.1554 7.8607 21.843 7.86182 19.5079C7.86294 17.1727 8.32537 14.8608 9.22255 12.7049C10.1197 10.549 11.434 8.59153 13.0899 6.94501L16.2911 10.1462C15.0541 11.3728 14.0727 12.8325 13.4037 14.4409C12.7347 16.0493 12.3914 17.7744 12.3936 19.5164Z" fill="white"/>
<path d="M24.4888 22.8303H27.7222C27.7437 23.3459 27.9513 23.7792 28.3452 24.1301C28.7463 24.481 29.2941 24.6564 29.9888 24.6564C30.6476 24.6564 31.1812 24.5132 31.5894 24.2267C31.9976 23.9331 32.2052 23.5428 32.2124 23.0558C32.2267 22.6763 32.105 22.3469 31.8472 22.0676C31.5894 21.7883 31.1024 21.5448 30.3862 21.3371L28.5601 20.8322C25.9461 20.023 24.6392 18.5692 24.6392 16.4709C24.6392 15.1389 25.1405 14.0539 26.1431 13.216C27.1457 12.371 28.3846 11.9484 29.8599 11.9484C31.3566 11.9484 32.5848 12.3674 33.5444 13.2053C34.5041 14.0432 34.9839 15.1711 34.9839 16.5891H31.772C31.772 16.0734 31.6001 15.6581 31.2563 15.343C30.9198 15.0279 30.4399 14.8703 29.8169 14.8703C29.2511 14.8703 28.7821 15.0135 28.4097 15.3C28.0373 15.5793 27.8511 15.9409 27.8511 16.3849C27.8511 17.1083 28.3953 17.6239 29.4839 17.9318L31.2886 18.5012C34.1245 19.3176 35.5103 20.843 35.4458 23.0773C35.4386 23.8078 35.2739 24.4631 34.9517 25.0432C34.6366 25.6232 34.2176 26.0887 33.6948 26.4396C33.1792 26.7905 32.6027 27.0591 31.9653 27.2453C31.3351 27.4315 30.6763 27.5246 29.9888 27.5246C28.3488 27.5246 27.0203 27.0877 26.0034 26.2141C24.9937 25.3332 24.4888 24.2053 24.4888 22.8303ZM37.7876 14.4728C37.4152 14.1219 37.229 13.6958 37.229 13.1945C37.229 12.6932 37.4152 12.2707 37.7876 11.9269C38.1672 11.5832 38.6183 11.4113 39.1411 11.4113C39.6567 11.4113 40.0972 11.5832 40.4624 11.9269C40.8276 12.2707 41.0103 12.6932 41.0103 13.1945C41.0103 13.6958 40.8276 14.1219 40.4624 14.4728C40.0972 14.8238 39.6567 14.9992 39.1411 14.9992C38.6183 14.9992 38.1672 14.8238 37.7876 14.4728ZM37.6265 27.2775V17.008H40.6665V27.2775H37.6265ZM42.8579 22.175C42.8579 21.3729 43.0011 20.6317 43.2876 19.9514C43.5741 19.2639 43.9536 18.6945 44.4263 18.2433C44.9061 17.785 45.4539 17.4269 46.0698 17.1691C46.6857 16.9113 47.3231 16.7824 47.9819 16.7824C48.6408 16.7824 49.2567 16.9185 49.8296 17.1906C50.4097 17.4556 50.8215 17.8172 51.0649 18.2756V17.008H54.0298V25.8488C54.0298 28.0259 53.5249 29.6623 52.5151 30.758C51.5125 31.8537 50.0802 32.4016 48.2183 32.4016C47.0939 32.4016 46.077 32.1115 45.1675 31.5314C44.2651 30.9514 43.5955 30.1779 43.1587 29.2111C43.4165 29.0822 43.8283 28.8781 44.394 28.5988C44.9598 28.3267 45.3716 28.1297 45.6294 28.008C45.8013 28.4735 46.1414 28.8638 46.6499 29.1789C47.1655 29.494 47.6883 29.6516 48.2183 29.6516C50.2664 29.6516 51.2153 28.4341 51.0649 25.9992C50.8286 26.4575 50.4204 26.8228 49.8403 27.0949C49.2603 27.3599 48.6408 27.4924 47.9819 27.4924C47.0939 27.4924 46.2632 27.2775 45.4897 26.8478C44.7163 26.4182 44.0825 25.7915 43.5884 24.968C43.1014 24.1444 42.8579 23.2134 42.8579 22.175ZM46.0483 22.1105C46.0483 22.8553 46.2882 23.4605 46.7681 23.926C47.255 24.3843 47.8351 24.6135 48.5083 24.6135C49.16 24.6135 49.7365 24.3771 50.2378 23.9045C50.7391 23.4318 50.9897 22.8338 50.9897 22.1105C50.9897 21.3729 50.7427 20.7857 50.2485 20.3488C49.7616 19.9048 49.1815 19.6828 48.5083 19.6828C47.8351 19.6828 47.255 19.912 46.7681 20.3703C46.2882 20.8215 46.0483 21.4016 46.0483 22.1105ZM56.855 27.2775V17.008H59.9165V18.5012C60.1886 17.9855 60.5968 17.5702 61.1411 17.2551C61.6925 16.94 62.2726 16.7824 62.8813 16.7824C64.063 16.7824 64.9832 17.1512 65.6421 17.8889C66.3081 18.6265 66.6411 19.7114 66.6411 21.1437V27.2775H63.5903V21.799C63.5903 21.1402 63.4256 20.6353 63.0962 20.2844C62.7739 19.9335 62.3442 19.758 61.8071 19.758C60.5467 19.758 59.9165 20.4527 59.9165 21.842V27.2775H56.855ZM74.9556 21.8635V12.1203H78.2319V21.8635C78.2319 22.6226 78.4897 23.2456 79.0054 23.7326C79.521 24.2196 80.1333 24.4631 80.8423 24.4631C81.5441 24.4631 82.1564 24.2196 82.6792 23.7326C83.202 23.2385 83.4634 22.6154 83.4634 21.8635V12.1203H86.6968V21.8635C86.6968 22.9735 86.4211 23.9618 85.8696 24.8283C85.3254 25.6948 84.6092 26.3573 83.7212 26.8156C82.8403 27.2668 81.8807 27.4924 80.8423 27.4924C79.7967 27.4924 78.8263 27.2668 77.9312 26.8156C77.0431 26.3573 76.3234 25.6948 75.772 24.8283C75.2277 23.9618 74.9556 22.9735 74.9556 21.8635ZM89.5327 32.3156V17.008H92.5728V18.2756C92.8234 17.8101 93.2244 17.4448 93.7759 17.1799C94.3273 16.9149 94.9289 16.7824 95.5806 16.7824C96.2394 16.7824 96.8696 16.9113 97.4712 17.1691C98.0728 17.4198 98.5991 17.7743 99.0503 18.2326C99.5086 18.6838 99.8739 19.246 100.146 19.9191C100.418 20.5923 100.554 21.3228 100.554 22.1105C100.554 22.9126 100.418 23.6574 100.146 24.3449C99.8739 25.0252 99.5086 25.5946 99.0503 26.0529C98.5991 26.5041 98.0728 26.8586 97.4712 27.1164C96.8696 27.367 96.2394 27.4924 95.5806 27.4924C94.9217 27.4924 94.3166 27.3635 93.7651 27.1057C93.2137 26.8407 92.8162 26.479 92.5728 26.0207V32.3156H89.5327ZM92.6372 22.175C92.6372 22.9126 92.8664 23.5034 93.3247 23.9474C93.7902 24.3915 94.3524 24.6135 95.0112 24.6135C95.6772 24.6135 96.2394 24.3879 96.6978 23.9367C97.1561 23.4855 97.3853 22.8983 97.3853 22.175C97.3853 21.4374 97.1561 20.8394 96.6978 20.381C96.2394 19.9155 95.6772 19.6828 95.0112 19.6828C94.3595 19.6828 93.8009 19.9191 93.3354 20.3918C92.87 20.8573 92.6372 21.4517 92.6372 22.175Z" fill="white"/>
</svg>
